<?xml version="1.0" standalone="no"?>
<!DOCTYPE svg PUBLIC "-//W3C//DTD SVG 1.1//EN" "http://www.w3.org/Graphics/SVG/1.1/DTD/svg11.dtd" >
<svg xmlns="http://www.w3.org/2000/svg">
<metadata>
This is a custom SVG webfont generated by Font Squirrel.
Copyright   : Copyright 2004 Process Type Foundry All rights reserved
Designer    : Eric Olson
Foundry URL : httpwwwprocesstypefoundrycom
</metadata>
<defs>
<font id="Stratum2Regular" horiz-adv-x="1044" >
<font-face units-per-em="2048" ascent="1577" descent="-471" />
<missing-glyph horiz-adv-x="446" />
<glyph unicode=" "  horiz-adv-x="446" />
<glyph unicode="&#x09;" horiz-adv-x="446" />
<glyph unicode="&#xa0;" horiz-adv-x="446" />
<glyph unicode="!" horiz-adv-x="503" d="M174 0v223h156v-223h-156zM182 737v627h140v-627l-25 -344h-90z" />
<glyph unicode="&#x22;" horiz-adv-x="688" d="M123 852v512h113v-512h-113zM453 852v512h112v-512h-112z" />
<glyph unicode="#" horiz-adv-x="1458" d="M102 412l17 100h278l56 346h-283l16 98h283l70 408h108l-69 -408h393l67 408h109l-68 -408h297l-16 -98h-297l-55 -346h301l-17 -100h-301l-67 -412h-109l68 412h-394l-67 -412h-109l68 412h-279zM506 512h393l55 346h-391z" />
<glyph unicode="$" horiz-adv-x="1103" d="M164 227v160h143v-135q0 -55 32 -88t87 -33h254q55 0 87 33t32 88v207q0 82 -115 121l-299 102q-102 35 -158.5 86t-56.5 137v232q0 100 63.5 163.5t161.5 63.5h109v197h104v-197h101q98 0 162.5 -63.5t64.5 -163.5v-154h-143v131q0 55 -32 87t-87 32h-244q-53 0 -85 -32 t-32 -87v-180q0 -88 115 -125l301 -102q100 -35 155.5 -85.5t55.5 -138.5v-256q0 -98 -63.5 -162.5t-161.5 -64.5h-107v-197h-104v197h-113q-98 0 -162.5 64.5t-64.5 162.5z" />
<glyph unicode="%" horiz-adv-x="1988" d="M164 795v366q0 84 62.5 143.5t148.5 59.5h213q86 0 148.5 -59.5t62.5 -143.5v-366q0 -84 -62.5 -143.5t-148.5 -59.5h-213q-86 0 -148.5 59.5t-62.5 143.5zM283 823q0 -121 120 -121h156q121 0 121 121v310q0 121 -121 120h-156q-121 0 -120 -120v-310zM600 0l674 1364 h121l-674 -1364h-121zM1190 203v366q0 84 62.5 143.5t148.5 59.5h213q86 0 148.5 -59.5t62.5 -143.5v-366q0 -84 -62.5 -143.5t-148.5 -59.5h-213q-86 0 -148.5 59.5t-62.5 143.5zM1309 231q0 -121 121 -120h155q121 0 121 120v310q0 121 -121 121h-155q-121 0 -121 -121 v-310z" />
<glyph unicode="&#x26;" horiz-adv-x="1220" d="M164 223v309q0 133 110 179q-96 57 -96 196v234q0 98 62.5 160.5t158.5 62.5h301q102 0 167 -61.5t65 -161.5v-115h-137v92q0 55 -31 87t-86 32h-244q-55 0 -87 -31.5t-32 -87.5v-233q0 -53 28 -85t81 -32h786v-125h-231v-420q0 -96 -63.5 -159.5t-159.5 -63.5h-371 q-96 0 -158.5 63.5t-62.5 159.5zM303 246q0 -55 32 -87t87 -32h301q55 0 87 31.5t32 87.5v397h-420q-119 0 -119 -117v-280z" />
<glyph unicode="'" horiz-adv-x="358" d="M123 852v512h113v-512h-113z" />
<glyph unicode="(" horiz-adv-x="505" d="M164 -123v1413q0 100 69 166l166 148l97 -101l-156 -145q-37 -37 -37 -90v-1368q0 -53 37 -90l156 -146l-97 -100l-166 147q-69 66 -69 166z" />
<glyph unicode=")" horiz-adv-x="505" d="M10 -336l156 146q37 37 37 90v1368q0 53 -37 90l-156 145l96 101l166 -148q70 -66 70 -166v-1413q0 -100 -70 -166l-166 -147z" />
<glyph unicode="*" horiz-adv-x="927" d="M92 1001v78h299l-168 252l66 43l174 -262l174 262l65 -43l-167 -252h301v-78h-301l167 -247l-67 -43l-172 260l-172 -260l-66 43l164 247h-297z" />
<glyph unicode="+" horiz-adv-x="1062" d="M102 473v115h365v373h129v-373h365v-115h-365v-373h-129v373h-365z" />
<glyph unicode="," horiz-adv-x="450" d="M102 -236l111 236h-61v223h155v-223l-131 -272z" />
<glyph unicode="-" horiz-adv-x="747" d="M123 532v119h502v-119h-502z" />
<glyph unicode="." horiz-adv-x="483" d="M164 0v223h155v-223h-155z" />
<glyph unicode="/" horiz-adv-x="874" d="M82 -240l592 1624h119l-590 -1624h-121z" />
<glyph unicode="0" horiz-adv-x="1120" d="M164 223v918q0 98 62.5 160.5t158.5 62.5h348q96 0 159.5 -62.5t63.5 -160.5v-918q0 -96 -63.5 -159.5t-159.5 -63.5h-348q-96 0 -158.5 63.5t-62.5 159.5zM303 246q0 -55 32 -87t87 -32h278q55 0 86 31.5t31 87.5v872q0 55 -30.5 87t-86.5 32h-278q-55 0 -87 -31.5 t-32 -87.5v-872z" />
<glyph unicode="1" horiz-adv-x="694" d="M0 1100v139l381 125h139v-1364h-139v1225z" />
<glyph unicode="2" horiz-adv-x="1062" d="M154 0v438q0 86 47 130t147 83l316 121q68 25 89 47.5t21 71.5v227q0 55 -30.5 87t-88.5 32h-243q-55 0 -86 -31.5t-31 -87.5v-135h-139v158q0 98 62.5 160.5t158.5 62.5h313q96 0 159.5 -62.5t63.5 -160.5v-271q0 -80 -43 -126t-139 -85l-323 -127q-63 -27 -89 -50 t-26 -72v-281h627v-129h-766z" />
<glyph unicode="3" horiz-adv-x="1075" d="M133 223v129h137v-106q0 -55 32 -87t87 -32h264q55 0 87 31.5t32 87.5v270q0 55 -31.5 87t-87.5 32h-329v127h327q51 0 80 32.5t29 86.5v237q0 55 -32 87t-87 32h-242q-55 0 -86.5 -31.5t-31.5 -87.5v-110h-140v133q0 98 63.5 160.5t160.5 62.5h311q96 0 159.5 -62.5 t63.5 -160.5v-269q0 -111 -96 -167q109 -47 108 -179v-303q0 -96 -63.5 -159.5t-159.5 -63.5h-334q-96 0 -158.5 63.5t-62.5 159.5z" />
<glyph unicode="4" horiz-adv-x="1040" d="M35 377v121l614 866h139v-866h222v-121h-222v-377h-139v377h-614zM186 498h463v657z" />
<glyph unicode="5" horiz-adv-x="1075" d="M164 223v62h139v-39q0 -55 32 -87t87 -32h252q55 0 87 31.5t32 87.5v313q0 74 -26 111t-93 37q-158 0 -244 -31q-119 -41 -119 -123v-47h-139v858h729v-127h-590v-473q162 74 398 74q106 0 164.5 -60.5t58.5 -163.5v-391q0 -96 -63.5 -159.5t-159.5 -63.5h-324 q-96 0 -158.5 63.5t-62.5 159.5z" />
<glyph unicode="6" horiz-adv-x="1067" d="M164 223v918q0 98 62.5 160.5t158.5 62.5h313q96 0 160 -62.5t64 -160.5v-119h-140v96q0 55 -31.5 87t-86.5 32h-242q-55 0 -87 -31.5t-32 -87.5v-418q166 82 408 82q106 0 164.5 -60t58.5 -163v-336q0 -96 -63.5 -159.5t-159.5 -63.5h-326q-96 0 -158.5 63.5 t-62.5 159.5zM303 246q0 -55 32 -87t87 -32h254q55 0 87 31.5t32 87.5v258q0 74 -26 110.5t-93 36.5q-145 0 -254 -39q-119 -41 -119 -123v-243z" />
<glyph unicode="7" horiz-adv-x="847" d="M20 1237v127h777v-119l-453 -1245h-137l450 1237h-637z" />
<glyph unicode="8" horiz-adv-x="1126" d="M164 223v303q0 131 108 179q-94 61 -94 167v269q0 98 62.5 160.5t158.5 62.5h328q96 0 159.5 -62.5t63.5 -160.5v-269q0 -106 -96 -167q109 -49 109 -179v-303q0 -96 -63.5 -159.5t-160.5 -63.5h-354q-96 0 -158.5 63.5t-62.5 159.5zM303 246q0 -55 32 -87t87 -32h283 q55 0 86.5 31.5t31.5 87.5v270q0 55 -31.5 87t-86.5 32h-283q-55 0 -87 -32t-32 -87v-270zM315 881q0 -53 30 -86t81 -33h276q49 0 79 32.5t30 86.5v237q0 55 -31.5 87t-87.5 32h-258q-55 0 -87 -31.5t-32 -87.5v-237z" />
<glyph unicode="9" horiz-adv-x="1069" d="M133 223v119h139v-96q0 -55 32 -87t87 -32h256q55 0 87 31.5t32 87.5v418q-166 -82 -408 -82q-106 0 -164.5 60t-58.5 163v336q0 96 63.5 159.5t159.5 63.5h326q96 0 158.5 -63.5t62.5 -159.5v-918q0 -98 -62.5 -160.5t-158.5 -62.5h-328q-96 0 -159.5 62.5t-63.5 160.5z M274 860q0 -74 26 -110.5t93 -36.5q145 0 254 39q119 41 119 122v244q0 55 -32 87t-87 32h-254q-55 0 -87 -31.5t-32 -87.5v-258z" />
<glyph unicode=":" horiz-adv-x="483" d="M164 0v223h155v-223h-155zM164 666v223h155v-223h-155z" />
<glyph unicode=";" horiz-adv-x="473" d="M102 -236l113 236h-61v223h155v-223l-131 -272zM152 666v223h157v-223h-157z" />
<glyph unicode="&#x3c;" horiz-adv-x="1193" d="M61 457v80l940 475l50 -97l-840 -419l840 -420l-50 -96z" />
<glyph unicode="=" horiz-adv-x="956" d="M154 299v115h649v-115h-649zM154 643v113h649v-113h-649z" />
<glyph unicode="&#x3e;" horiz-adv-x="1193" d="M143 76l840 420l-840 419l50 97l940 -475v-80l-940 -477z" />
<glyph unicode="?" horiz-adv-x="1017" d="M143 985v156q0 98 62.5 160.5t159.5 62.5h317q96 0 159.5 -62.5t63.5 -160.5v-232q0 -82 -26.5 -115.5t-116.5 -88.5l-156 -91q-41 -25 -54 -46t-13 -72v-119h-140v149q0 82 27 122t96 77q117 61 152 82q59 35 75.5 57.5t16.5 77.5v176q0 55 -30.5 87t-86.5 32h-248 q-55 0 -86.5 -31.5t-31.5 -87.5v-133h-140zM391 0v223h156v-223h-156z" />
<glyph unicode="@" horiz-adv-x="1218" d="M164 213v940q0 90 62.5 150.5t158.5 60.5h457q98 0 160.5 -60.5t62.5 -150.5v-647h-109v51q-55 -29 -144 -48.5t-157 -19.5q-76 0 -122 46.5t-46 121.5v160q0 76 46.5 121t121.5 45q205 0 301 -51v192q0 68 -37.5 105t-105.5 37h-395q-68 0 -106 -37t-38 -105v-884 q0 -66 38 -103t106 -37h594v-100h-627q-96 0 -158.5 61.5t-62.5 151.5zM592 690q0 -55 19.5 -79.5t66.5 -24.5q104 0 176 22q100 31 100 97v67q0 80 -100 105q-53 14 -176 14q-86 0 -86 -88v-113z" />
<glyph unicode="A" horiz-adv-x="1224" d="M74 0l471 1364h135l471 -1364h-145l-123 352h-545l-119 -352h-145zM383 483h457l-228 703z" />
<glyph unicode="B" horiz-adv-x="1179" d="M174 0v1364h617q96 0 159.5 -62.5t63.5 -160.5v-258q0 -121 -105 -174q53 -16 85 -62.5t32 -114.5v-309q0 -96 -63.5 -159.5t-159.5 -63.5h-629zM317 131h447q119 0 119 119v270q0 53 -31 86t-82 33h-453v-508zM317 768h445q51 0 79.5 33t28.5 86v227q0 55 -31.5 87 t-86.5 32h-435v-465z" />
<glyph unicode="C" horiz-adv-x="1185" d="M164 227v910q0 100 63.5 163.5t161.5 63.5h418q98 0 161.5 -63.5t63.5 -163.5v-199h-143v174q0 55 -32 87t-87 32h-344q-55 0 -87 -32t-32 -87v-860q0 -55 32 -87t87 -32h344q55 0 87 32t32 87v184h143v-209q0 -98 -64.5 -162.5t-160.5 -64.5h-418q-96 0 -160.5 64.5 t-64.5 162.5z" />
<glyph unicode="D" horiz-adv-x="1179" d="M174 0v1364h614q98 0 163 -63.5t65 -163.5v-910q0 -98 -64.5 -162.5t-163.5 -64.5h-614zM317 133h437q55 0 86.5 32t31.5 87v860q0 55 -31.5 87t-86.5 32h-437v-1098z" />
<glyph unicode="E" horiz-adv-x="1089" d="M174 0v1364h778v-133h-635v-459h578v-133h-578v-506h639v-133h-782z" />
<glyph unicode="F" horiz-adv-x="1021" d="M174 0v1364h787v-133h-644v-459h586v-133h-586v-639h-143z" />
<glyph unicode="G" horiz-adv-x="1171" d="M164 227v910q0 100 63.5 163.5t161.5 63.5h412q98 0 162.5 -63.5t64.5 -163.5v-166h-143v141q0 55 -32 87t-87 32h-340q-55 0 -87 -32t-32 -87v-860q0 -55 32 -87t87 -32h340q55 0 87 32t32 87v293h-285v131h428v-449q0 -98 -64.5 -162.5t-162.5 -64.5h-412 q-96 0 -160.5 64.5t-64.5 162.5z" />
<glyph unicode="H" horiz-adv-x="1249" d="M174 0v1364h143v-592h615v592h143v-1364h-143v639h-615v-639h-143z" />
<glyph unicode="I" horiz-adv-x="512" d="M184 0v1364h144v-1364h-144z" />
<glyph unicode="J" horiz-adv-x="1034" d="M82 227v179h143v-154q0 -55 32 -87t87 -32h264q55 0 87 32t32 87v1112h143v-1137q0 -98 -63.5 -162.5t-161.5 -64.5h-336q-98 0 -162.5 64.5t-64.5 162.5z" />
<glyph unicode="K" horiz-adv-x="1105" d="M174 0v1364h143v-647l545 647h176l-567 -670l594 -694h-178l-570 668v-668h-143z" />
<glyph unicode="L" horiz-adv-x="1026" d="M174 0v1364h143v-1231h617v-133h-760z" />
<glyph unicode="M" horiz-adv-x="1445" d="M174 0v1364h139l410 -924l410 924h139v-1364h-139v1047l-347 -766h-127l-346 766v-1047h-139z" />
<glyph unicode="N" horiz-adv-x="1265" d="M174 0v1364h139l639 -1106v1106h140v-1364h-140l-639 1104v-1104h-139z" />
<glyph unicode="O" horiz-adv-x="1212" d="M164 227v910q0 100 63.5 163.5t161.5 63.5h432q98 0 163 -63.5t65 -163.5v-910q0 -98 -64.5 -162.5t-163.5 -64.5h-432q-96 0 -160.5 64.5t-64.5 162.5zM307 252q0 -55 32 -87t87 -32h360q55 0 87 32t32 87v860q0 55 -31.5 87t-87.5 32h-360q-55 0 -87 -32t-32 -87v-860z " />
<glyph unicode="P" horiz-adv-x="1089" d="M174 0v1364h619q96 0 160.5 -63.5t64.5 -163.5v-340q0 -98 -64.5 -163t-160.5 -65h-476v-569h-143zM317 702h439q57 0 87.5 32t30.5 87v291q0 55 -30.5 87t-87.5 32h-439v-529z" />
<glyph unicode="Q" horiz-adv-x="1212" d="M164 227v910q0 100 63.5 163.5t161.5 63.5h432q98 0 163 -63.5t65 -163.5v-910q0 -98 -64.5 -162.5t-163.5 -64.5h-143v-299h-141v299h-148q-96 0 -160.5 64.5t-64.5 162.5zM307 252q0 -55 32 -87t87 -32h360q55 0 87 32t32 87v860q0 55 -31.5 87t-87.5 32h-360 q-55 0 -87 -32t-32 -87v-860z" />
<glyph unicode="R" horiz-adv-x="1204" d="M174 0v1364h633q98 0 161.5 -63.5t63.5 -163.5v-334q0 -90 -51 -150.5t-139 -74.5l280 -578h-153l-281 575h-371v-575h-143zM317 707h453q57 0 88 31.5t31 86.5v287q0 55 -31 87t-88 32h-453v-524z" />
<glyph unicode="S" horiz-adv-x="1132" d="M156 227v168h143v-143q0 -119 119 -119h319q119 0 119 119v203q0 49 -26.5 76.5t-88.5 43.5l-364 103q-215 61 -215 221v238q0 100 64.5 163.5t162.5 63.5h379q96 0 160.5 -63.5t64.5 -163.5v-166h-143v141q0 55 -31 88t-88 33h-307q-57 0 -88 -33t-31 -88v-186 q0 -90 115 -121l366 -105q213 -61 213 -223v-250q0 -98 -63.5 -162.5t-161.5 -64.5h-391q-98 0 -162.5 64.5t-64.5 162.5z" />
<glyph unicode="T" horiz-adv-x="1058" d="M51 1231v133h957v-133h-406v-1231h-143v1231h-408z" />
<glyph unicode="U" horiz-adv-x="1183" d="M164 227v1137h143v-1112q0 -55 32 -87t87 -32h332q55 0 87 32t32 87v1112h143v-1137q0 -98 -64.5 -162.5t-162.5 -64.5h-404q-96 0 -160.5 64.5t-64.5 162.5z" />
<glyph unicode="V" horiz-adv-x="1132" d="M57 1364h146l364 -1165l363 1165h145l-434 -1364h-147z" />
<glyph unicode="W" horiz-adv-x="1630" d="M82 1364h139l230 -1131l301 1131h129l299 -1131l229 1131h139l-291 -1364h-143l-299 1139l-297 -1139h-145z" />
<glyph unicode="X" horiz-adv-x="1218" d="M123 0l407 692l-397 672h152l323 -549l326 549h151l-397 -672l408 -692h-150l-338 569l-336 -569h-149z" />
<glyph unicode="Y" horiz-adv-x="1062" d="M31 1364h151l348 -686l351 686h151l-428 -844v-520h-145v520z" />
<glyph unicode="Z" horiz-adv-x="1150" d="M143 0v129l703 1108h-692v127h850v-127l-707 -1108h711v-129h-865z" />
<glyph unicode="[" horiz-adv-x="565" d="M174 -258v1888h381v-112h-244v-1663h244v-113h-381z" />
<glyph unicode="\" horiz-adv-x="864" d="M72 1386h121l589 -1626h-118z" />
<glyph unicode="]" horiz-adv-x="565" d="M10 -145h244v1663h-244v112h381v-1888h-381v113z" />
<glyph unicode="^" horiz-adv-x="923" d="M92 739l322 625h96l321 -625l-98 -49l-272 547l-271 -547z" />
<glyph unicode="_" horiz-adv-x="837" d="M-4 -12h846v-60h-846v60z" />
<glyph unicode="`" horiz-adv-x="737" d="M143 1311l70 80l238 -215l-66 -78z" />
<glyph unicode="a" horiz-adv-x="1011" d="M123 203v125q0 102 60.5 162.5t162.5 60.5q231 0 373 -68v244q0 55 -32 87t-87 32h-203q-55 0 -86.5 -32t-31.5 -87v-33h-134v56q0 96 62.5 158.5t159.5 62.5h270q96 0 158.5 -62.5t62.5 -160.5v-748h-137v68q-156 -88 -375 -88q-102 0 -162.5 60.5t-60.5 162.5zM260 221 q0 -119 119 -119q109 0 207 31q133 45 133 129v29q0 90 -133 123q-78 18 -207 18q-119 0 -119 -119v-92z" />
<glyph unicode="b" d="M164 0v1364h139v-473q80 43 187.5 71.5t187.5 28.5q106 0 164.5 -60.5t58.5 -162.5v-565q0 -102 -58.5 -162.5t-164.5 -60.5q-80 0 -188.5 28.5t-188.5 71.5v-80h-137zM303 285q0 -82 119 -123q141 -51 221 -51q68 0 93.5 36.5t25.5 110.5v455q0 74 -25.5 110.5 t-93.5 36.5q-80 0 -221 -51q-119 -41 -119 -123v-401z" />
<glyph unicode="c" horiz-adv-x="987" d="M143 223v525q0 98 62.5 160.5t159.5 62.5h286q96 0 159.5 -62.5t63.5 -160.5v-91h-139v68q0 55 -31.5 87t-87.5 32h-215q-55 0 -86.5 -32t-31.5 -87v-479q0 -55 31.5 -87t86.5 -32h215q55 0 87 31.5t32 87.5v82h139v-105q0 -96 -63 -159.5t-160 -63.5h-286 q-96 0 -159 63.5t-63 159.5z" />
<glyph unicode="d" d="M143 203v565q0 102 58.5 162.5t165.5 60.5q80 0 187.5 -28.5t186.5 -71.5v473h140v-1364h-138v80q-80 -43 -188.5 -71.5t-187.5 -28.5q-106 0 -165 60.5t-59 162.5zM283 258q0 -74 25.5 -110.5t92.5 -36.5q80 0 222 51q119 41 118 123v401q0 82 -118 123q-141 51 -222 51 q-68 0 -93 -37t-25 -110v-455z" />
<glyph unicode="e" horiz-adv-x="999" d="M143 223v525q0 98 62.5 160.5t159.5 62.5h288q96 0 160 -62.5t64 -160.5v-289h-594v-215q0 -55 31.5 -87t86.5 -32h224q55 0 85.5 31.5t30.5 87.5v49h136v-70q0 -98 -62.5 -160.5t-159.5 -62.5h-290q-96 0 -159 63.5t-63 159.5zM283 580h458v151q0 55 -31.5 87t-86.5 32 h-222q-55 0 -86.5 -32t-31.5 -87v-151z" />
<glyph unicode="f" horiz-adv-x="667" d="M72 852v119h147v170q0 98 62.5 160.5t158.5 62.5h207v-123h-170q-55 0 -87 -31.5t-32 -87.5v-151h277v-119h-277v-852h-139v852h-147z" />
<glyph unicode="g" horiz-adv-x="1034" d="M143 223v545q0 102 58.5 162.5t165.5 60.5q80 0 188.5 -28.5t187.5 -71.5v80h138v-1137q0 -115 -73 -169t-194 -54h-385v123h396q55 0 85.5 31.5t30.5 87.5v247q-80 -43 -187.5 -71.5t-186.5 -28.5q-106 0 -165 60.5t-59 162.5zM283 279q0 -74 25.5 -111t92.5 -37 q80 0 222 51q119 41 118 123v381q0 82 -118 123q-141 51 -222 51q-68 0 -93 -37t-25 -110v-434z" />
<glyph unicode="h" horiz-adv-x="1054" d="M164 0v1364h139v-473q201 100 375 100q102 0 162.5 -61.5t60.5 -161.5v-768h-139v737q0 119 -119 119q-80 0 -221 -51q-119 -39 -119 -113v-692h-139z" />
<glyph unicode="i" horiz-adv-x="466" d="M164 0v971h139v-971h-139zM164 1141v223h139v-223h-139z" />
<glyph unicode="j" horiz-adv-x="495" d="M-47 -266h121q119 0 119 119v1118h139v-1137q0 -98 -62.5 -160.5t-158.5 -62.5h-158v123zM193 1141v223h139v-223h-139z" />
<glyph unicode="k" horiz-adv-x="917" d="M164 0v1364h139v-856l404 463h167l-419 -484l430 -487h-170l-412 471v-471h-139z" />
<glyph unicode="l" horiz-adv-x="466" d="M164 0v1364h139v-1364h-139z" />
<glyph unicode="m" horiz-adv-x="1652" d="M164 0v971h137v-80q86 43 193.5 71.5t183.5 28.5q133 0 194 -106q86 43 207 74.5t197 31.5q102 0 162.5 -61.5t60.5 -161.5v-768h-139v737q0 119 -119 119q-80 0 -221 -51q-119 -41 -119 -123v-682h-139v737q0 119 -119 119q-80 0 -221 -51q-119 -39 -119 -123v-682h-139 z" />
<glyph unicode="n" horiz-adv-x="1054" d="M164 0v971h137v-80q86 43 193.5 71.5t183.5 28.5q102 0 162.5 -61.5t60.5 -161.5v-768h-139v737q0 119 -119 119q-80 0 -221 -51q-119 -39 -119 -123v-682h-139z" />
<glyph unicode="o" d="M143 223v525q0 98 62.5 160.5t159.5 62.5h313q96 0 159.5 -62.5t63.5 -160.5v-525q0 -98 -63.5 -160.5t-159.5 -62.5h-313q-96 0 -159 62.5t-63 160.5zM283 246q0 -55 30.5 -87t85.5 -32h244q55 0 87 31.5t32 87.5v479q0 55 -32 87t-87 32h-244q-55 0 -85.5 -32 t-30.5 -87v-479z" />
<glyph unicode="p" d="M164 -389v1360h137v-80q80 43 188.5 71.5t188.5 28.5q106 0 164.5 -60.5t58.5 -162.5v-565q0 -102 -58.5 -162.5t-164.5 -60.5q-80 0 -187.5 28.5t-187.5 71.5v-469h-139zM303 285q0 -82 119 -123q141 -51 221 -51q68 0 93.5 36.5t25.5 110.5v455q0 74 -25.5 110.5 t-93.5 36.5q-80 0 -221 -51q-119 -41 -119 -123v-401z" />
<glyph unicode="q" d="M143 203v565q0 102 58.5 162.5t165.5 60.5q80 0 188.5 -28.5t187.5 -71.5v80h138v-1360h-140v469q-80 -43 -187.5 -71.5t-186.5 -28.5q-106 0 -165 60.5t-59 162.5zM283 258q0 -74 25.5 -110.5t92.5 -36.5q80 0 222 51q119 41 118 123v401q0 82 -118 123q-141 51 -222 51 q-68 0 -93 -37t-25 -110v-455z" />
<glyph unicode="r" horiz-adv-x="628" d="M164 0v971h137v-146q104 78 305 166l12 -133q-127 -61 -196 -104q-37 -23 -59.5 -40.5t-41 -50t-18.5 -73.5v-590h-139z" />
<glyph unicode="s" horiz-adv-x="940" d="M129 223v70h137v-51q0 -55 31 -87t86 -32h192q117 0 117 117v41q0 43 -19.5 66.5t-76.5 41.5l-272 86q-190 59 -191 201v74q0 98 62.5 159.5t160.5 61.5h242q96 0 159.5 -62.5t63.5 -160.5v-72h-137v53q0 55 -31.5 87t-87.5 32h-172q-121 0 -121 -117v-33 q0 -45 21.5 -66.5t77.5 -39.5l274 -86q186 -59 186 -207v-78q0 -96 -63 -158.5t-160 -62.5h-258q-96 0 -158.5 63.5t-62.5 159.5z" />
<glyph unicode="t" horiz-adv-x="614" d="M31 971h157v258h140v-258h245v-121h-245v-606q0 -55 31.5 -88t86.5 -33h127v-123h-163q-96 0 -159 63.5t-63 159.5v627h-157v121z" />
<glyph unicode="u" horiz-adv-x="1054" d="M154 203v768h139v-738q0 -119 119 -118q80 0 221 51q119 39 119 123v682h139v-971h-137v80q-86 -43 -193.5 -71.5t-183.5 -28.5q-102 0 -162.5 61.5t-60.5 161.5z" />
<glyph unicode="v" horiz-adv-x="888" d="M31 971h141l272 -803l271 803h143l-338 -971h-151z" />
<glyph unicode="w" horiz-adv-x="1292" d="M72 971h131l141 -770l238 770h131l235 -770l139 770h134l-187 -971h-145l-242 786l-244 -786h-143z" />
<glyph unicode="x" horiz-adv-x="974" d="M92 0l320 487l-316 484h158l233 -365l234 365h158l-316 -484l320 -487h-160l-236 373l-235 -373h-160z" />
<glyph unicode="y" horiz-adv-x="894" d="M31 971h147l266 -791l269 791h145l-473 -1360h-139l125 391z" />
<glyph unicode="z" horiz-adv-x="927" d="M129 0v127l514 719h-506v125h666v-125l-518 -719h524v-127h-680z" />
<glyph unicode="{" horiz-adv-x="649" d="M164 600v90l137 113l-68 534q-1 15 -1 30q0 163 194 202q78 16 205 35l18 -107q-117 -20 -172 -33q-106 -26 -106 -110q0 -10 2 -21l69 -536q2 -27 -20 -43l-133 -109l133 -108q23 -16 20 -43l-69 -537q-2 -11 -2 -21q0 -84 106 -110q55 -12 172 -33l-18 -106 q-127 18 -205 34q-194 40 -194 203q0 14 1 29l68 534z" />
<glyph unicode="|" horiz-adv-x="483" d="M195 -410v2048h94v-2048h-94z" />
<glyph unicode="}" horiz-adv-x="649" d="M0 -207q117 20 172 33q106 26 106 110q0 10 -2 21l-69 537q-2 27 20 43l133 108l-133 109q-23 16 -20 43l69 536q2 11 2 21q0 84 -106 110q-55 12 -172 33l18 107q127 -18 205 -35q194 -40 194 -202q0 -14 -1 -30l-68 -534l137 -113v-90l-137 -113l68 -534q1 -15 1 -29 q0 -163 -194 -203q-78 -16 -205 -34z" />
<glyph unicode="~" horiz-adv-x="901" d="M72 444l61 115q35 68 100 89q24 8 49 8q42 0 87 -23l200 -105q27 -14 49 -13q45 0 74 54l47 90l90 -47l-61 -114q-35 -68 -100 -89q-25 -8 -51 -9q-41 0 -82 22l-203 106q-27 14 -49 14q-45 0 -74 -55l-47 -90z" />
<glyph unicode="&#xa1;" horiz-adv-x="503" d="M174 748v223h156v-223h-156zM182 233l25 345h90l25 -345v-622h-140v622z" />
<glyph unicode="&#xa2;" horiz-adv-x="987" d="M143 418v524q0 98 62.5 160.5t159.5 62.5h88v199h106v-199h92q96 0 159.5 -62.5t63.5 -160.5v-90h-139v68q0 55 -31.5 86.5t-87.5 31.5h-215q-55 0 -86.5 -31.5t-31.5 -86.5v-480q0 -55 31.5 -86.5t86.5 -31.5h215q55 0 87 31.5t32 86.5v82h139v-104q0 -96 -63 -159.5 t-160 -63.5h-92v-195h-106v195h-88q-96 0 -159 63.5t-63 159.5z" />
<glyph unicode="&#xa3;" horiz-adv-x="1163" d="M51 0v119h268v1022q0 96 62.5 159.5t159.5 63.5h358v-121h-321q-55 0 -87 -31.5t-32 -87.5v-284h362v-121h-362v-600h307q55 0 87 31.5t32 87.5v102h125v-117q0 -96 -63.5 -159.5t-160.5 -63.5h-735z" />
<glyph unicode="&#xa4;" horiz-adv-x="1263" d="M51 485v97h191v209h-191v96h191v250q0 100 63.5 163.5t161.5 63.5h418q98 0 161.5 -63.5t63.5 -163.5v-199h-143v174q0 55 -32 87t-87 32h-344q-55 0 -87 -32t-32 -87v-225h301v-96h-301v-209h301v-97h-301v-233q0 -55 32 -87t87 -32h344q55 0 87 32t32 87v184l143 -2 v-207q0 -98 -64.5 -162.5t-160.5 -64.5h-418q-96 0 -160.5 64.5t-64.5 162.5v258h-191z" />
<glyph unicode="&#xa5;" horiz-adv-x="1062" d="M31 1364h151l348 -686l351 686h151l-323 -637h225v-104h-279l-51 -103v-96h330v-102h-330v-322h-145v322h-328v102h328v96l-53 103h-275v104h221z" />
<glyph unicode="&#xa6;" horiz-adv-x="483" d="M195 -410v854h94v-854h-94zM195 784v854h94v-854h-94z" />
<glyph unicode="&#xa7;" horiz-adv-x="1067" d="M164 352l35 123l493 -141q190 -53 191 -203v-309q0 -92 -62.5 -151.5t-158.5 -59.5h-265q-92 0 -155.5 63.5t-63.5 155.5v139h133v-119q0 -49 34 -83.5t87 -34.5h191q53 0 86.5 30.5t33.5 79.5v264q0 82 -116 115zM186 846v307q0 92 62.5 151.5t154.5 59.5h265 q94 0 157.5 -63.5t63.5 -155.5v-139h-133v118q0 49 -34 84t-85 35h-193q-53 0 -86.5 -29.5t-33.5 -80.5v-263q0 -84 116 -114l463 -131l-35 -123l-493 141q-189 53 -189 203z" />
<glyph unicode="&#xa8;" horiz-adv-x="897" d="M225 1130v168h127v-168h-127zM545 1130v168h127v-168h-127z" />
<glyph unicode="&#xa9;" horiz-adv-x="1351" d="M164 195v976q0 80 56 136.5t136 56.5h639q80 0 136.5 -56.5t56.5 -136.5v-976q0 -80 -56.5 -137.5t-136.5 -57.5h-639q-80 0 -136 57.5t-56 137.5zM246 203q0 -53 36.5 -89t90.5 -36h608q53 0 89 36t36 89v958q0 53 -36 89t-89 36h-608q-53 0 -90 -36t-37 -89v-958z M436 457v452q0 66 44 110t110 44h182q63 0 107.5 -44t44.5 -110v-100h-84v88q0 37 -26 62.5t-62 25.5h-142q-39 0 -63.5 -25.5t-24.5 -62.5v-426q0 -39 24.5 -64.5t63.5 -25.5h142q37 0 62.5 25.5t25.5 64.5v90h84v-104q0 -66 -44 -110t-108 -44h-182q-66 0 -110 45.5 t-44 108.5z" />
<glyph unicode="&#xaa;" horiz-adv-x="673" d="M123 928v71q0 57 35 92t92 35q131 0 211 -39v138q0 68 -68 67h-114q-68 0 -68 -67v-21h-76v35q0 53 36 89t91 36h152q55 0 91 -36t36 -91v-424h-78v39q-88 -51 -213 -51q-57 0 -92 34t-35 93zM203 940q0 -66 67 -66q59 0 115 17q76 25 76 74v10q0 49 -76 72 q-49 10 -115 10q-68 0 -67 -68v-49z" />
<glyph unicode="&#xab;" horiz-adv-x="1011" d="M102 487l299 410l91 -66l-250 -344l250 -340l-91 -65zM489 487l299 410l91 -66l-250 -344l250 -340l-91 -65z" />
<glyph unicode="&#xac;" horiz-adv-x="1071" d="M113 641v115h794v-527h-123v412h-671z" />
<glyph unicode="&#xad;" horiz-adv-x="747" d="M123 532v119h502v-119h-502z" />
<glyph unicode="&#xae;" horiz-adv-x="1007" d="M123 719v475q0 72 47 121t121 49h422q74 0 123 -49t49 -121v-475q0 -72 -49.5 -122t-122.5 -50h-422q-72 0 -120 50t-48 122zM184 715q0 -45 32 -77t79 -32h416q47 0 78.5 32t31.5 77v483q0 45 -31.5 76t-78.5 31h-416q-47 0 -79 -31t-32 -76v-483zM375 748v423h194 q31 0 51.5 -21.5t20.5 -51.5v-103q0 -61 -55 -71l88 -176h-53l-89 176h-106v-176h-51zM426 969h131q35 0 35 32v91q0 14 -10.5 24t-24.5 10h-131v-157z" />
<glyph unicode="&#xaf;" horiz-adv-x="929" d="M225 1163v101h480v-101h-480z" />
<glyph unicode="&#xb0;" horiz-adv-x="587" d="M143 1071v238q0 23 15.5 39t40.5 16h188q25 0 41 -16.5t16 -38.5v-238q0 -23 -16 -40t-41 -17h-188q-25 0 -40.5 16t-15.5 41zM203 1083q0 -16 16 -16h150q16 0 16 16v211q0 16 -16 17h-150q-16 0 -16 -17v-211z" />
<glyph unicode="&#xb1;" horiz-adv-x="1126" d="M133 0v102h365v371h-365v115h365v373h129v-373h366v-115h-366v-371h366v-102h-860z" />
<glyph unicode="&#xb2;" horiz-adv-x="1507" d="M61 1364h1385l-692 -1384z" />
<glyph unicode="&#xb3;" horiz-adv-x="1507" d="M61 0l693 1384l692 -1384h-1385z" />
<glyph unicode="&#xb4;" horiz-adv-x="739" d="M287 1176l239 215l70 -80l-242 -213z" />
<glyph unicode="&#xb5;" horiz-adv-x="1054" d="M154 -389v1360h139v-738q0 -119 119 -118q80 0 221 51q119 39 119 123v682h139v-971h-137v80q-86 -43 -193.5 -71.5t-183.5 -28.5q-41 0 -84 14v-383h-139z" />
<glyph unicode="&#xb6;" horiz-adv-x="1091" d="M113 727v555q0 35 22.5 58.5t59.5 23.5h723v-1364h-101v1270h-160v-1577q0 -35 -22.5 -58.5t-56.5 -23.5h-209v88h163q25 0 25 22v922h-362q-37 0 -59.5 23.5t-22.5 60.5z" />
<glyph unicode="&#xb7;" horiz-adv-x="481" d="M164 557v223h153v-223h-153z" />
<glyph unicode="&#xb8;" horiz-adv-x="690" d="M225 -242l119 287l121 -16l-135 -316z" />
<glyph unicode="&#xb9;" horiz-adv-x="1650" d="M174 -20v1404l1405 -702z" />
<glyph unicode="&#xba;" horiz-adv-x="675" d="M123 940v297q0 55 36 91t89 36h178q55 0 91 -36t36 -91v-297q0 -55 -36 -91t-91 -36h-178q-53 0 -89 36t-36 91zM203 952q0 -68 65 -67h138q68 0 67 67v273q0 68 -67 67h-138q-66 0 -65 -67v-273z" />
<glyph unicode="&#xbb;" horiz-adv-x="1011" d="M133 147l250 340l-250 344l90 66l299 -410l-299 -405zM520 147l250 340l-250 344l90 66l299 -410l-299 -405z" />
<glyph unicode="&#xbc;" horiz-adv-x="1298" d="M164 0v971h971v-971h-971z" />
<glyph unicode="&#xbd;" horiz-adv-x="1712" d="M174 0v1364h1364v-1364h-1364z" />
<glyph unicode="&#xbe;" horiz-adv-x="1236" d="M164 -20v1011l1012 -506z" />
<glyph unicode="&#xbf;" horiz-adv-x="1017" d="M113 61q0 82 26.5 116t116.5 89l156 90q41 25 54 46.5t13 72.5v119h139v-150q0 -82 -26.5 -121.5t-95.5 -76.5q-117 -61 -152 -82q-59 -35 -75.5 -57.5t-16.5 -77.5v-172q0 -55 30.5 -87t86.5 -32h247q55 0 87 31.5t32 87.5v133h139v-156q0 -98 -62 -160.5t-159 -62.5 h-317q-96 0 -159.5 62.5t-63.5 160.5v227zM471 748v223h156v-223h-156z" />
<glyph unicode="&#xc0;" horiz-adv-x="1224" d="M74 0l471 1364h135l471 -1364h-145l-123 352h-545l-119 -352h-145zM344 1692l70 80l237 -216l-65 -77zM383 483h457l-228 703z" />
<glyph unicode="&#xc1;" horiz-adv-x="1224" d="M74 0l471 1364h135l471 -1364h-145l-123 352h-545l-119 -352h-145zM383 483h457l-228 703zM557 1556l240 216l69 -80l-241 -213z" />
<glyph unicode="&#xc2;" horiz-adv-x="1224" d="M74 0l471 1364h135l471 -1364h-145l-123 352h-545l-119 -352h-145zM362 1520l248 233l252 -233l-63 -70l-189 176l-186 -176zM383 483h457l-228 703z" />
<glyph unicode="&#xc3;" horiz-adv-x="1224" d="M74 0l471 1364h135l471 -1364h-145l-123 352h-545l-119 -352h-145zM373 1507l37 99q12 35 45 49q16 7 33 7t34 -7l193 -72q29 -10 35 10l26 72l78 -29l-37 -98q-14 -35 -45 -49q-17 -8 -34 -8q-15 0 -31 6l-199 76q-23 6 -31 -15l-26 -69zM383 483h457l-228 703z" />
<glyph unicode="&#xc4;" horiz-adv-x="1224" d="M74 0l471 1364h135l471 -1364h-145l-123 352h-545l-119 -352h-145zM383 483h457l-228 703zM389 1511v168h127v-168h-127zM709 1511v168h127v-168h-127z" />
<glyph unicode="&#xc5;" horiz-adv-x="1224" d="M74 0l471 1364h135l471 -1364h-145l-123 352h-545l-119 -352h-145zM383 483h457l-228 703zM479 1477v153q0 25 14.5 40.5t38.5 15.5h160q25 0 40.5 -16.5t15.5 -39.5v-153q0 -25 -15.5 -41.5t-40.5 -16.5h-160q-25 0 -39 16.5t-14 41.5zM547 1501q0 -16 16 -16h101 q16 0 16 16v105q0 16 -16 16h-101q-16 0 -16 -16v-105z" />
<glyph unicode="&#xc6;" horiz-adv-x="1679" d="M74 0l471 1364h993v-133h-817l156 -449h583v-133h-538l180 -516h444v-133h-542l-123 354h-541l-123 -354h-143zM381 483h457l-228 682z" />
<glyph unicode="&#xc7;" horiz-adv-x="1185" d="M164 227v910q0 100 63.5 163.5t161.5 63.5h418q98 0 161.5 -63.5t63.5 -163.5v-199h-143v174q0 55 -32 87t-87 32h-344q-55 0 -87 -32t-32 -87v-860q0 -55 32 -87t87 -32h344q55 0 87 32t32 87v184h143v-209q0 -98 -64.5 -162.5t-160.5 -64.5h-148l-122 -287l-105 45 l100 242h-143q-96 0 -160.5 64.5t-64.5 162.5z" />
<glyph unicode="&#xc8;" horiz-adv-x="1089" d="M174 0v1364h778v-133h-635v-459h578v-133h-578v-506h639v-133h-782zM297 1692l70 80l237 -216l-65 -77z" />
<glyph unicode="&#xc9;" horiz-adv-x="1089" d="M174 0v1364h778v-133h-635v-459h578v-133h-578v-506h639v-133h-782zM455 1556l239 216l70 -80l-242 -213z" />
<glyph unicode="&#xca;" horiz-adv-x="1089" d="M174 0v1364h778v-133h-635v-459h578v-133h-578v-506h639v-133h-782zM301 1520l248 233l252 -233l-64 -70l-188 176l-187 -176z" />
<glyph unicode="&#xcb;" horiz-adv-x="1089" d="M174 0v1364h778v-133h-635v-459h578v-133h-578v-506h639v-133h-782zM338 1511v168h127v-168h-127zM657 1511v168h127v-168h-127z" />
<glyph unicode="&#xcc;" horiz-adv-x="512" d="M-12 1692l69 80l238 -216l-66 -77zM182 0v1364h144v-1364h-144z" />
<glyph unicode="&#xcd;" horiz-adv-x="512" d="M174 0v1364h143v-1364h-143zM190 1556l240 216l70 -80l-242 -213z" />
<glyph unicode="&#xce;" horiz-adv-x="512" d="M4 1520l248 233l252 -233l-64 -70l-188 176l-186 -176zM182 0v1364h144v-1364h-144z" />
<glyph unicode="&#xcf;" horiz-adv-x="512" d="M31 1511v168h127v-168h-127zM182 0v1364h144v-1364h-144zM350 1511v168h127v-168h-127z" />
<glyph unicode="&#xd0;" horiz-adv-x="1236" d="M72 625v116h161v623h615q98 0 161.5 -63.5t63.5 -163.5v-910q0 -98 -64.5 -162.5t-160.5 -64.5h-615v625h-161zM377 133h434q55 0 87 32t32 87v860q0 55 -32 87t-87 32h-434v-490h254v-116h-254v-492z" />
<glyph unicode="&#xd1;" horiz-adv-x="1265" d="M174 0v1364h139l639 -1106v1106h140v-1364h-140l-639 1104v-1104h-139zM412 1507l37 99q12 35 45 49q16 7 33 7t34 -7l193 -72q29 -10 34 10l27 72l78 -29l-37 -98q-14 -35 -45 -49q-17 -8 -34 -8q-15 0 -32 6l-198 76q-23 6 -31 -15l-27 -69z" />
<glyph unicode="&#xd2;" horiz-adv-x="1212" d="M164 227v910q0 100 63.5 163.5t161.5 63.5h432q98 0 163 -63.5t65 -163.5v-910q0 -98 -64.5 -162.5t-163.5 -64.5h-432q-96 0 -160.5 64.5t-64.5 162.5zM307 252q0 -55 32 -87t87 -32h360q55 0 87 32t32 87v860q0 55 -31.5 87t-87.5 32h-360q-55 0 -87 -32t-32 -87v-860z M348 1692l70 80l237 -216l-65 -77z" />
<glyph unicode="&#xd3;" horiz-adv-x="1212" d="M164 227v910q0 100 63.5 163.5t161.5 63.5h432q98 0 163 -63.5t65 -163.5v-910q0 -98 -64.5 -162.5t-163.5 -64.5h-432q-96 0 -160.5 64.5t-64.5 162.5zM307 252q0 -55 32 -87t87 -32h360q55 0 87 32t32 87v860q0 55 -31.5 87t-87.5 32h-360q-55 0 -87 -32t-32 -87v-860z M547 1556l239 216l70 -80l-242 -213z" />
<glyph unicode="&#xd4;" horiz-adv-x="1212" d="M164 227v910q0 100 63.5 163.5t161.5 63.5h432q98 0 163 -63.5t65 -163.5v-910q0 -98 -64.5 -162.5t-163.5 -64.5h-432q-96 0 -160.5 64.5t-64.5 162.5zM307 252q0 -55 32 -87t87 -32h360q55 0 87 32t32 87v860q0 55 -31.5 87t-87.5 32h-360q-55 0 -87 -32t-32 -87v-860z M356 1520l248 233l252 -233l-63 -70l-189 176l-186 -176z" />
<glyph unicode="&#xd5;" horiz-adv-x="1212" d="M164 227v910q0 100 63.5 163.5t161.5 63.5h432q98 0 163 -63.5t65 -163.5v-910q0 -98 -64.5 -162.5t-163.5 -64.5h-432q-96 0 -160.5 64.5t-64.5 162.5zM307 252q0 -55 32 -87t87 -32h360q55 0 87 32t32 87v860q0 55 -31.5 87t-87.5 32h-360q-55 0 -87 -32t-32 -87v-860z M360 1507l37 99q12 35 45 49q16 7 33.5 7t34.5 -7l192 -72q29 -10 35 10l27 72l78 -29l-37 -98q-14 -35 -45 -49q-17 -8 -34 -8q-15 0 -32 6l-198 76q-23 6 -31 -15l-27 -69z" />
<glyph unicode="&#xd6;" horiz-adv-x="1212" d="M164 227v910q0 100 63.5 163.5t161.5 63.5h432q98 0 163 -63.5t65 -163.5v-910q0 -98 -64.5 -162.5t-163.5 -64.5h-432q-96 0 -160.5 64.5t-64.5 162.5zM307 252q0 -55 32 -87t87 -32h360q55 0 87 32t32 87v860q0 55 -31.5 87t-87.5 32h-360q-55 0 -87 -32t-32 -87v-860z M383 1511v168h127v-168h-127zM702 1511v168h127v-168h-127z" />
<glyph unicode="&#xd7;" horiz-adv-x="901" d="M102 262l263 262l-261 258l89 88l258 -260l260 262l88 -88l-260 -262l260 -258l-88 -88l-260 260l-261 -262z" />
<glyph unicode="&#xd8;" horiz-adv-x="1212" d="M164 -63l65 124q-66 66 -65 166v910q0 100 63.5 163.5t161.5 63.5h432q47 0 90 -16l64 116l74 -39l-66 -125q66 -61 66 -163v-910q0 -98 -64.5 -162.5t-163.5 -64.5h-432q-45 0 -88 16l-61 -118zM307 252q0 -27 4 -37l533 1004q-25 12 -58 12h-360q-55 0 -87 -32t-32 -87 v-860zM369 143q20 -10 57 -10h360q55 0 87 32t32 87v860q0 14 -4 35z" />
<glyph unicode="&#xd9;" horiz-adv-x="1183" d="M164 227v1137h143v-1112q0 -55 32 -87t87 -32h332q55 0 87 32t32 87v1112h143v-1137q0 -98 -64.5 -162.5t-162.5 -64.5h-404q-96 0 -160.5 64.5t-64.5 162.5zM319 1692l70 80l238 -216l-66 -77z" />
<glyph unicode="&#xda;" horiz-adv-x="1183" d="M164 227v1137h143v-1112q0 -55 32 -87t87 -32h332q55 0 87 32t32 87v1112h143v-1137q0 -98 -64.5 -162.5t-162.5 -64.5h-404q-96 0 -160.5 64.5t-64.5 162.5zM535 1556l239 216l70 -80l-242 -213z" />
<glyph unicode="&#xdb;" horiz-adv-x="1183" d="M164 227v1137h143v-1112q0 -55 32 -87t87 -32h332q55 0 87 32t32 87v1112h143v-1137q0 -98 -64.5 -162.5t-162.5 -64.5h-404q-96 0 -160.5 64.5t-64.5 162.5zM344 1520l248 233l252 -233l-64 -70l-188 176l-186 -176z" />
<glyph unicode="&#xdc;" horiz-adv-x="1183" d="M164 227v1137h143v-1112q0 -55 32 -87t87 -32h332q55 0 87 32t32 87v1112h143v-1137q0 -98 -64.5 -162.5t-162.5 -64.5h-404q-96 0 -160.5 64.5t-64.5 162.5zM373 1511v168h127v-168h-127zM692 1511v168h127v-168h-127z" />
<glyph unicode="&#xdd;" horiz-adv-x="1062" d="M31 1364h151l348 -686l351 686h151l-428 -844v-520h-145v520zM487 1556l240 216l70 -80l-242 -213z" />
<glyph unicode="&#xde;" horiz-adv-x="1089" d="M174 0v1364h143v-266h476q96 0 160.5 -64.5t64.5 -163.5v-340q0 -100 -64.5 -163.5t-160.5 -63.5h-476v-303h-143zM317 436h439q55 0 86.5 32t31.5 87v291q0 55 -31.5 87t-86.5 32h-439v-529z" />
<glyph unicode="&#xdf;" horiz-adv-x="1245" d="M164 0v1141q0 98 62.5 160.5t158.5 62.5h193q96 0 159.5 -62.5t63.5 -160.5v-346q0 -55 7 -77t34 -48l190 -189q66 -63 88.5 -102t22.5 -107v-51q0 -96 -63.5 -158.5t-159.5 -62.5h-203q-96 0 -158.5 63.5t-62.5 159.5v74h127v-59q0 -119 118 -119h150q119 0 119 117v43 q0 16 -2 28t-12.5 26.5t-15.5 20.5t-26 26l-28 28l-185 184q-51 51 -65 86t-14 100v344q0 55 -32 87t-87 32h-121q-55 0 -87 -31.5t-32 -87.5v-1122h-139z" />
<glyph unicode="&#xe0;" horiz-adv-x="1032" d="M143 203v125q0 102 60.5 162.5t163.5 60.5q231 0 372 -68v244q0 55 -31.5 87t-86.5 32h-203q-55 0 -87 -32t-32 -87v-33h-133v56q0 96 62.5 158.5t158.5 62.5h270q96 0 159 -62.5t63 -160.5v-748h-138v68q-156 -88 -374 -88q-102 0 -163 60.5t-61 162.5zM256 1311l70 80 l237 -215l-65 -78zM281 221q0 -119 118 -119q109 0 207 31q133 45 133 129v29q0 90 -133 123q-78 18 -207 18q-119 0 -118 -119v-92z" />
<glyph unicode="&#xe1;" horiz-adv-x="1032" d="M143 203v125q0 102 60.5 162.5t163.5 60.5q231 0 372 -68v244q0 55 -31.5 87t-86.5 32h-203q-55 0 -87 -32t-32 -87v-33h-133v56q0 96 62.5 158.5t158.5 62.5h270q96 0 159 -62.5t63 -160.5v-748h-138v68q-156 -88 -374 -88q-102 0 -163 60.5t-61 162.5zM281 221 q0 -119 118 -119q109 0 207 31q133 45 133 129v29q0 90 -133 123q-78 18 -207 18q-119 0 -118 -119v-92zM463 1176l239 215l70 -80l-242 -213z" />
<glyph unicode="&#xe2;" horiz-adv-x="1032" d="M143 203v125q0 102 60.5 162.5t163.5 60.5q231 0 372 -68v244q0 55 -31.5 87t-86.5 32h-203q-55 0 -87 -32t-32 -87v-33h-133v56q0 96 62.5 158.5t158.5 62.5h270q96 0 159 -62.5t63 -160.5v-748h-138v68q-156 -88 -374 -88q-102 0 -163 60.5t-61 162.5zM281 221 q0 -119 118 -119q109 0 207 31q133 45 133 129v29q0 90 -133 123q-78 18 -207 18q-119 0 -118 -119v-92zM285 1151l247 233l252 -233l-63 -70l-189 176l-186 -176z" />
<glyph unicode="&#xe3;" horiz-adv-x="1032" d="M143 203v125q0 102 60.5 162.5t163.5 60.5q231 0 372 -68v244q0 55 -31.5 87t-86.5 32h-203q-55 0 -87 -32t-32 -87v-33h-133v56q0 96 62.5 158.5t158.5 62.5h270q96 0 159 -62.5t63 -160.5v-748h-138v68q-156 -88 -374 -88q-102 0 -163 60.5t-61 162.5zM276 1137l37 98 q12 35 45 49q16 7 33.5 7t34.5 -7l192 -72q29 -10 35 11l27 71l78 -28l-37 -99q-14 -35 -45 -49q-17 -8 -34 -8q-15 0 -32 6l-198 76q-23 6 -31 -14l-27 -70zM281 221q0 -119 118 -119q109 0 207 31q133 45 133 129v29q0 90 -133 123q-78 18 -207 18q-119 0 -118 -119v-92z " />
<glyph unicode="&#xe4;" horiz-adv-x="1032" d="M143 203v125q0 102 60.5 162.5t163.5 60.5q231 0 372 -68v244q0 55 -31.5 87t-86.5 32h-203q-55 0 -87 -32t-32 -87v-33h-133v56q0 96 62.5 158.5t158.5 62.5h270q96 0 159 -62.5t63 -160.5v-748h-138v68q-156 -88 -374 -88q-102 0 -163 60.5t-61 162.5zM281 221 q0 -119 118 -119q109 0 207 31q133 45 133 129v29q0 90 -133 123q-78 18 -207 18q-119 0 -118 -119v-92zM307 1130v168h127v-168h-127zM627 1130v168h127v-168h-127z" />
<glyph unicode="&#xe5;" horiz-adv-x="1032" d="M143 203v125q0 102 60.5 162.5t163.5 60.5q231 0 372 -68v244q0 55 -31.5 87t-86.5 32h-203q-55 0 -87 -32t-32 -87v-33h-133v56q0 96 62.5 158.5t158.5 62.5h270q96 0 159 -62.5t63 -160.5v-748h-138v68q-156 -88 -374 -88q-102 0 -163 60.5t-61 162.5zM281 221 q0 -119 118 -119q109 0 207 31q133 45 133 129v29q0 90 -133 123q-78 18 -207 18q-119 0 -118 -119v-92zM389 1143v153q0 25 14.5 40.5t38.5 15.5h160q25 0 40 -16.5t15 -39.5v-153q0 -25 -15 -41.5t-40 -16.5h-160q-25 0 -39 16.5t-14 41.5zM457 1167q0 -16 16 -16h100 q16 0 17 16v105q0 16 -17 16h-100q-16 0 -16 -16v-105z" />
<glyph unicode="&#xe6;" horiz-adv-x="1595" d="M143 203v125q0 100 60.5 161.5t163.5 61.5q236 0 372 -70v250q-2 53 -33.5 84t-84.5 31h-203q-55 0 -87 -32t-32 -87v-37h-135v60q0 96 62.5 158.5t158.5 62.5h240q117 0 184 -60q61 59 184 60h258q96 0 159 -62.5t63 -160.5v-289h-594v-221q2 -53 32.5 -83t83.5 -30h224 q55 0 86.5 31.5t31.5 87.5v47h136v-68q0 -98 -62.5 -160.5t-159.5 -62.5h-290q-117 0 -179 88q-174 -109 -415 -108q-102 0 -163 61.5t-61 161.5zM281 225q0 -119 135 -119q43 0 94 9.5t105.5 27t89 49t34.5 72.5v25q0 82 -118 119q-70 20 -205 20t-135 -119v-84zM879 580 h458v151q0 55 -31.5 87t-86.5 32h-224q-55 0 -85.5 -32t-30.5 -87v-151z" />
<glyph unicode="&#xe7;" horiz-adv-x="987" d="M143 223v525q0 98 62.5 160.5t159.5 62.5h286q96 0 159.5 -62.5t63.5 -160.5v-91h-139v68q0 55 -31.5 87t-87.5 32h-215q-55 0 -86.5 -32t-31.5 -87v-479q0 -55 31.5 -87t86.5 -32h215q55 0 87 31.5t32 87.5v82h139v-105q0 -96 -63 -159.5t-160 -63.5h-73l-123 -287 l-105 45l101 242h-86q-96 0 -159 63.5t-63 159.5z" />
<glyph unicode="&#xe8;" horiz-adv-x="999" d="M143 223v525q0 98 62.5 160.5t159.5 62.5h288q96 0 160 -62.5t64 -160.5v-289h-594v-215q0 -55 31.5 -87t86.5 -32h224q55 0 85.5 31.5t30.5 87.5v49h136v-70q0 -98 -62.5 -160.5t-159.5 -62.5h-290q-96 0 -159 63.5t-63 159.5zM242 1311l69 80l238 -215l-66 -78z M283 580h458v151q0 55 -31.5 87t-86.5 32h-222q-55 0 -86.5 -32t-31.5 -87v-151z" />
<glyph unicode="&#xe9;" horiz-adv-x="999" d="M143 223v525q0 98 62.5 160.5t159.5 62.5h288q96 0 160 -62.5t64 -160.5v-289h-594v-215q0 -55 31.5 -87t86.5 -32h224q55 0 85.5 31.5t30.5 87.5v49h136v-70q0 -98 -62.5 -160.5t-159.5 -62.5h-290q-96 0 -159 63.5t-63 159.5zM283 580h458v151q0 55 -31.5 87t-86.5 32 h-222q-55 0 -86.5 -32t-31.5 -87v-151zM446 1176l240 215l70 -80l-242 -213z" />
<glyph unicode="&#xea;" horiz-adv-x="999" d="M143 223v525q0 98 62.5 160.5t159.5 62.5h288q96 0 160 -62.5t64 -160.5v-289h-594v-215q0 -55 31.5 -87t86.5 -32h224q55 0 85.5 31.5t30.5 87.5v49h136v-70q0 -98 -62.5 -160.5t-159.5 -62.5h-290q-96 0 -159 63.5t-63 159.5zM268 1151l248 233l252 -233l-63 -70 l-189 176l-186 -176zM283 580h458v151q0 55 -31.5 87t-86.5 32h-222q-55 0 -86.5 -32t-31.5 -87v-151z" />
<glyph unicode="&#xeb;" horiz-adv-x="999" d="M143 223v525q0 98 62.5 160.5t159.5 62.5h288q96 0 160 -62.5t64 -160.5v-289h-594v-215q0 -55 31.5 -87t86.5 -32h224q55 0 85.5 31.5t30.5 87.5v49h136v-70q0 -98 -62.5 -160.5t-159.5 -62.5h-290q-96 0 -159 63.5t-63 159.5zM283 580h458v151q0 55 -31.5 87t-86.5 32 h-222q-55 0 -86.5 -32t-31.5 -87v-151zM291 1130v168h127v-168h-127zM610 1130v168h127v-168h-127z" />
<glyph unicode="&#xec;" horiz-adv-x="466" d="M-33 1311l70 80l237 -215l-65 -78zM166 0v971h139v-971h-139z" />
<glyph unicode="&#xed;" horiz-adv-x="466" d="M168 0v971h139v-971h-139zM176 1176l240 215l69 -80l-241 -213z" />
<glyph unicode="&#xee;" horiz-adv-x="466" d="M-14 1151l247 233l252 -233l-63 -70l-189 176l-186 -176zM166 0v971h139v-971h-139z" />
<glyph unicode="&#xef;" horiz-adv-x="466" d="M10 1130v168h127v-168h-127zM164 0v971h139v-971h-139zM330 1130v168h127v-168h-127z" />
<glyph unicode="&#xf0;" horiz-adv-x="1021" d="M143 223v344q0 102 58.5 163t165.5 61q242 0 407 -82v409q0 25 -10 49l-150 -170l-65 58l151 172q-20 10 -43 10h-424v127h459q57 0 107 -27l96 111l66 -57l-95 -107q47 -59 47 -143v-918q0 -96 -62.5 -159.5t-158.5 -63.5h-325q-96 0 -160 63.5t-64 159.5zM283 246 q0 -55 31.5 -87t86.5 -32h254q55 0 87 31.5t32 87.5v252q0 82 -119 123q-109 39 -254 38q-68 0 -93 -36.5t-25 -110.5v-266z" />
<glyph unicode="&#xf1;" horiz-adv-x="1054" d="M164 0v971h137v-80q86 43 193.5 71.5t183.5 28.5q102 0 162.5 -61.5t60.5 -161.5v-768h-139v737q0 119 -119 119q-80 0 -221 -51q-119 -39 -119 -123v-682h-139zM287 1137l37 98q12 35 45 49q16 7 33 7t34 -7l193 -72q29 -10 35 11l26 71l78 -28l-37 -99q-14 -35 -45 -49 q-17 -8 -34 -8q-15 0 -31 6l-199 76q-23 6 -31 -14l-26 -70z" />
<glyph unicode="&#xf2;" d="M143 223v525q0 98 62.5 160.5t159.5 62.5h313q96 0 159.5 -62.5t63.5 -160.5v-525q0 -98 -63.5 -160.5t-159.5 -62.5h-313q-96 0 -159 62.5t-63 160.5zM240 1311l69 80l238 -215l-66 -78zM283 246q0 -55 30.5 -87t85.5 -32h244q55 0 87 31.5t32 87.5v479q0 55 -32 87 t-87 32h-244q-55 0 -85.5 -32t-30.5 -87v-479z" />
<glyph unicode="&#xf3;" d="M143 223v525q0 98 62.5 160.5t159.5 62.5h313q96 0 159.5 -62.5t63.5 -160.5v-525q0 -98 -63.5 -160.5t-159.5 -62.5h-313q-96 0 -159 62.5t-63 160.5zM283 246q0 -55 30.5 -87t85.5 -32h244q55 0 87 31.5t32 87.5v479q0 55 -32 87t-87 32h-244q-55 0 -85.5 -32 t-30.5 -87v-479zM463 1176l239 215l70 -80l-242 -213z" />
<glyph unicode="&#xf4;" d="M143 223v525q0 98 62.5 160.5t159.5 62.5h313q96 0 159.5 -62.5t63.5 -160.5v-525q0 -98 -63.5 -160.5t-159.5 -62.5h-313q-96 0 -159 62.5t-63 160.5zM272 1151l248 233l252 -233l-63 -70l-189 176l-186 -176zM283 246q0 -55 30.5 -87t85.5 -32h244q55 0 87 31.5 t32 87.5v479q0 55 -32 87t-87 32h-244q-55 0 -85.5 -32t-30.5 -87v-479z" />
<glyph unicode="&#xf5;" d="M143 223v525q0 98 62.5 160.5t159.5 62.5h313q96 0 159.5 -62.5t63.5 -160.5v-525q0 -98 -63.5 -160.5t-159.5 -62.5h-313q-96 0 -159 62.5t-63 160.5zM270 1137l37 98q12 35 45 49q16 7 33 7t35 -7l192 -72q29 -10 35 11l27 71l78 -28l-37 -99q-14 -35 -45 -49 q-17 -8 -35 -8q-15 0 -31 6l-198 76q-23 6 -31 -14l-27 -70zM283 246q0 -55 30.5 -87t85.5 -32h244q55 0 87 31.5t32 87.5v479q0 55 -32 87t-87 32h-244q-55 0 -85.5 -32t-30.5 -87v-479z" />
<glyph unicode="&#xf6;" d="M143 223v525q0 98 62.5 160.5t159.5 62.5h313q96 0 159.5 -62.5t63.5 -160.5v-525q0 -98 -63.5 -160.5t-159.5 -62.5h-313q-96 0 -159 62.5t-63 160.5zM283 246q0 -55 30.5 -87t85.5 -32h244q55 0 87 31.5t32 87.5v479q0 55 -32 87t-87 32h-244q-55 0 -85.5 -32 t-30.5 -87v-479zM299 1130v168h127v-168h-127zM618 1130v168h127v-168h-127z" />
<glyph unicode="&#xf7;" horiz-adv-x="1073" d="M123 457v108h827v-108h-827zM459 57v201h155v-201h-155zM459 727v201h155v-201h-155z" />
<glyph unicode="&#xf8;" d="M143 -61l70 114q-70 66 -70 170v525q0 98 62.5 160.5t159.5 62.5h313q45 0 88 -17l74 119l61 -39l-72 -119q72 -61 72 -167v-525q0 -98 -63.5 -160.5t-159.5 -62.5h-313q-51 0 -89 14l-71 -116zM283 246q0 -33 12 -62l399 652q-29 8 -51 8h-244q-55 0 -85.5 -32 t-30.5 -87v-479zM350 135q18 -8 49 -8h244q55 0 87 31.5t32 87.5v479q0 33 -12 61z" />
<glyph unicode="&#xf9;" horiz-adv-x="1054" d="M154 203v768h139v-738q0 -119 119 -118q80 0 221 51q119 39 119 123v682h139v-971h-137v80q-86 -43 -193.5 -71.5t-183.5 -28.5q-102 0 -162.5 61.5t-60.5 161.5zM244 1311l69 80l238 -215l-66 -78z" />
<glyph unicode="&#xfa;" horiz-adv-x="1054" d="M154 203v768h139v-738q0 -119 119 -118q80 0 221 51q119 39 119 123v682h139v-971h-137v80q-86 -43 -193.5 -71.5t-183.5 -28.5q-102 0 -162.5 61.5t-60.5 161.5zM457 1176l239 215l70 -80l-242 -213z" />
<glyph unicode="&#xfb;" horiz-adv-x="1054" d="M154 203v768h139v-738q0 -119 119 -118q80 0 221 51q119 39 119 123v682h139v-971h-137v80q-86 -43 -193.5 -71.5t-183.5 -28.5q-102 0 -162.5 61.5t-60.5 161.5zM283 1151l247 233l252 -233l-63 -70l-189 176l-186 -176z" />
<glyph unicode="&#xfc;" horiz-adv-x="1054" d="M154 203v768h139v-738q0 -119 119 -118q80 0 221 51q119 39 119 123v682h139v-971h-137v80q-86 -43 -193.5 -71.5t-183.5 -28.5q-102 0 -162.5 61.5t-60.5 161.5zM307 1130v168h127v-168h-127zM627 1130v168h127v-168h-127z" />
<glyph unicode="&#xfd;" horiz-adv-x="894" d="M31 971h147l266 -791l269 791h145l-473 -1360h-139l125 391zM399 1176l240 215l70 -80l-242 -213z" />
<glyph unicode="&#xfe;" d="M164 -389v1753h137v-473q80 43 188.5 71.5t188.5 28.5q106 0 164.5 -60.5t58.5 -162.5v-565q0 -102 -58.5 -162.5t-164.5 -60.5q-80 0 -187.5 28.5t-187.5 71.5v-469h-139zM303 285q0 -82 119 -123q141 -51 221 -51q68 0 93.5 36.5t25.5 110.5v455q0 74 -25.5 110.5 t-93.5 36.5q-80 0 -221 -51q-119 -41 -119 -123v-401z" />
<glyph unicode="&#xff;" horiz-adv-x="894" d="M31 971h147l266 -791l269 791h145l-473 -1360h-139l125 391zM219 1130v168h127v-168h-127zM539 1130v168h127v-168h-127z" />
<glyph unicode="&#x152;" horiz-adv-x="1820" d="M164 227v910q0 100 63.5 163.5t161.5 63.5h1294v-133h-634v-459h575v-133h-575v-506h639v-133h-1299q-96 0 -160.5 64.5t-64.5 162.5zM307 252q0 -55 32 -87t87 -32h479v1098h-479q-55 0 -87 -32t-32 -87v-860z" />
<glyph unicode="&#x153;" horiz-adv-x="1617" d="M143 223v525q0 98 62.5 160.5t159.5 62.5h313q98 0 153 -76q51 76 152 76h289q96 0 159.5 -62.5t63.5 -160.5v-287h-594v-225q2 -51 34 -81t85 -30h223q55 0 86 31.5t31 87.5v53h135v-74q0 -98 -62.5 -160.5t-158.5 -62.5h-291q-92 0 -152 74q-59 -74 -153 -74h-313 q-96 0 -159 63.5t-63 159.5zM283 248q0 -55 30.5 -87t85.5 -32h244q55 0 87 32t32 87v479q-4 117 -119 117h-244q-55 0 -85.5 -32t-30.5 -87v-477zM901 580h459v151q0 55 -32 87t-87 32h-221q-115 0 -119 -115v-155z" />
<glyph unicode="&#x178;" horiz-adv-x="1062" d="M31 1364h151l348 -686l351 686h151l-428 -844v-520h-145v520zM309 1511v168h127v-168h-127zM629 1511v168h127v-168h-127z" />
<glyph unicode="&#x2c6;" horiz-adv-x="950" d="M225 1151l248 233l252 -233l-63 -70l-189 176l-186 -176z" />
<glyph unicode="&#x2dc;" horiz-adv-x="931" d="M225 1137l37 98q12 35 45 49q16 7 33 7t35 -7l192 -72q29 -10 35 11l27 71l78 -28l-37 -99q-14 -35 -45 -49q-17 -8 -35 -8q-15 0 -31 6l-199 76q-23 6 -30 -14l-27 -70z" />
<glyph unicode="&#x2000;" horiz-adv-x="884" />
<glyph unicode="&#x2001;" horiz-adv-x="1771" />
<glyph unicode="&#x2002;" horiz-adv-x="884" />
<glyph unicode="&#x2003;" horiz-adv-x="1771" />
<glyph unicode="&#x2004;" horiz-adv-x="589" />
<glyph unicode="&#x2005;" horiz-adv-x="442" />
<glyph unicode="&#x2006;" horiz-adv-x="294" />
<glyph unicode="&#x2007;" horiz-adv-x="294" />
<glyph unicode="&#x2008;" horiz-adv-x="221" />
<glyph unicode="&#x2009;" horiz-adv-x="354" />
<glyph unicode="&#x200a;" horiz-adv-x="98" />
<glyph unicode="&#x2010;" horiz-adv-x="747" d="M123 532v119h502v-119h-502z" />
<glyph unicode="&#x2011;" horiz-adv-x="747" d="M123 532v119h502v-119h-502z" />
<glyph unicode="&#x2012;" horiz-adv-x="747" d="M123 532v119h502v-119h-502z" />
<glyph unicode="&#x2013;" horiz-adv-x="985" d="M123 532v119h739v-119h-739z" />
<glyph unicode="&#x2014;" horiz-adv-x="1249" d="M123 532v119h1003v-119h-1003z" />
<glyph unicode="&#x2018;" horiz-adv-x="430" d="M143 885v223l131 272l74 -37l-110 -235h61v-223h-156z" />
<glyph unicode="&#x2019;" horiz-adv-x="399" d="M92 905l111 236h-62v223h156v-223l-131 -273z" />
<glyph unicode="&#x201a;" horiz-adv-x="450" d="M102 -236l111 236h-61v223h155v-223l-131 -272z" />
<glyph unicode="&#x201c;" horiz-adv-x="768" d="M143 885v223l131 272l66 -37l-102 -235h61v-223h-156zM481 885v223l131 272l74 -37l-111 -235h62v-223h-156z" />
<glyph unicode="&#x201d;" horiz-adv-x="778" d="M92 905l111 236h-62v223h156v-223l-131 -273zM438 905l103 236h-62v223h156v-223l-131 -273z" />
<glyph unicode="&#x201e;" horiz-adv-x="778" d="M92 -236l111 236h-62v223h156v-223l-131 -272zM438 -236l103 236h-62v223h156v-223l-131 -272z" />
<glyph unicode="&#x2022;" horiz-adv-x="724" d="M154 664q0 86 61 146t147.5 60t147.5 -60t61 -146q0 -88 -61 -148.5t-147.5 -60.5t-147.5 60.5t-61 148.5z" />
<glyph unicode="&#x2026;" horiz-adv-x="1449" d="M164 0v223h155v-223h-155zM647 0v223h156v-223h-156zM1130 0v223h156v-223h-156z" />
<glyph unicode="&#x202f;" horiz-adv-x="354" />
<glyph unicode="&#x2039;" horiz-adv-x="624" d="M102 487l299 410l91 -66l-250 -344l250 -340l-91 -65z" />
<glyph unicode="&#x203a;" horiz-adv-x="624" d="M133 147l250 340l-250 344l90 66l299 -410l-299 -405z" />
<glyph unicode="&#x205f;" horiz-adv-x="442" />
<glyph unicode="&#x20ac;" horiz-adv-x="1263" d="M51 485v97h191v209h-191v96h191v250q0 100 63.5 163.5t161.5 63.5h418q98 0 161.5 -63.5t63.5 -163.5v-199h-143v174q0 55 -32 87t-87 32h-344q-55 0 -87 -32t-32 -87v-225h301v-96h-301v-209h301v-97h-301v-233q0 -55 32 -87t87 -32h344q55 0 87 32t32 87v184l143 -2 v-207q0 -98 -64.5 -162.5t-160.5 -64.5h-418q-96 0 -160.5 64.5t-64.5 162.5v258h-191z" />
<glyph unicode="&#x2122;" horiz-adv-x="1359" d="M133 1294v70h451v-70h-187v-540h-75v540h-189zM690 754v610h74l184 -395l187 395h71v-610h-73v448l-152 -328h-63l-154 328v-448h-74z" />
<glyph unicode="&#xe000;" horiz-adv-x="970" d="M0 970h970v-970h-970v970z" />
<glyph unicode="&#xfb01;" horiz-adv-x="1153" d="M72 854v117h147v180q0 92 63.5 156.5t155.5 64.5h205v-123h-164q-51 0 -86 -33.5t-35 -85.5v-159h277v-117h-277v-854h-139v854h-147zM848 0v971h141v-971h-141zM848 1149v223h141v-223h-141z" />
<glyph unicode="&#xfb02;" horiz-adv-x="1161" d="M72 854v117h147v174q0 92 63.5 155.5t155.5 63.5h205v-121h-164q-51 0 -86 -34.5t-35 -86.5v-151h277v-117h-277v-854h-139v854h-147zM858 0v1364h139v-1364h-139z" />
<glyph unicode="&#xfb03;" horiz-adv-x="1802" d="M72 852v119h147v170q0 98 62.5 160.5t158.5 62.5h207v-123h-170q-55 0 -87 -31.5t-32 -87.5v-151h277v-119h-277v-852h-139v852h-147zM739 852v119h148v170q0 98 62.5 160.5t158.5 62.5h207v-123h-170q-55 0 -87 -31.5t-32 -87.5v-151h277v-119h-277v-852h-139v852h-148z M1499 0v971h139v-971h-139zM1499 1141v223h139v-223h-139z" />
<glyph unicode="&#xfb04;" horiz-adv-x="1802" d="M72 852v119h147v170q0 98 62.5 160.5t158.5 62.5h207v-123h-170q-55 0 -87 -31.5t-32 -87.5v-151h277v-119h-277v-852h-139v852h-147zM739 852v119h148v170q0 98 62.5 160.5t158.5 62.5h207v-123h-170q-55 0 -87 -31.5t-32 -87.5v-151h277v-119h-277v-852h-139v852h-148z M1499 0v1364h139v-1364h-139z" />
</font>
</defs>
</svg>
